<svg width="49" height="49" viewBox="0 0 49 49" fill="none" xmlns="http://www.w3.org/2000/svg">
<g clip-path="url(#clip0_7064_2823)">
<path d="M48.2212 43.893C47.8876 43.6059 47.3829 43.6434 47.0931 43.979C46.3619 44.8309 45.4002 45.3001 44.3853 45.3001C43.3712 45.3001 42.4095 44.831 41.6783 43.979C41.3736 43.6251 40.7689 43.6251 40.4642 43.979C39.733 44.8305 38.772 45.2997 37.7579 45.3001C36.7431 45.3001 35.7814 44.831 35.0501 43.979C34.7454 43.6251 34.1407 43.6251 33.8361 43.979C33.1048 44.831 32.1431 45.3001 31.1283 45.3001C30.1142 45.3001 29.1525 44.831 28.4212 43.979C28.1165 43.6251 27.5118 43.6251 27.2072 43.979C26.4759 44.831 25.5142 45.3001 24.5001 45.3001C23.486 45.3001 22.5243 44.831 21.7931 43.979C21.4884 43.6251 20.8837 43.6251 20.579 43.979C19.8478 44.831 18.8861 45.3001 17.872 45.3001C16.8571 45.3001 15.8954 44.831 15.1642 43.979C14.8595 43.6251 14.2548 43.6251 13.9501 43.979C13.2189 44.831 12.2572 45.3001 11.2431 45.3001H11.2423C10.2282 45.2997 9.26727 44.8306 8.53602 43.979C8.38368 43.8021 8.16261 43.7001 7.92899 43.7001C7.69536 43.7001 7.4743 43.802 7.32195 43.979C6.5907 44.831 5.62901 45.3001 4.61491 45.3001C3.60006 45.3001 2.63837 44.831 1.90712 43.979C1.61884 43.6434 1.11334 43.6059 0.779022 43.893C0.443865 44.1809 0.405614 44.686 0.693053 45.0211C1.73368 46.2328 3.12662 46.9001 4.61491 46.9001C5.82973 46.9001 6.98136 46.4551 7.92899 45.6325C8.87662 46.4551 10.0274 46.8997 11.2423 46.9001C11.2423 46.9001 11.2423 46.9001 11.2431 46.9001C12.4579 46.9001 13.6095 46.4551 14.5571 45.6325C15.5048 46.4551 16.6564 46.9001 17.872 46.9001C19.0868 46.9001 20.2384 46.4551 21.186 45.6325C22.1337 46.4551 23.2853 46.9001 24.5001 46.9001C25.7149 46.9001 26.8666 46.4551 27.8142 45.6325C28.7618 46.4551 29.9134 46.9001 31.1283 46.9001C32.3439 46.9001 33.4955 46.4551 34.4431 45.6325C35.3916 46.4551 36.5431 46.9001 37.7579 46.9001C38.9727 46.8997 40.1235 46.4551 41.0712 45.6325C42.0189 46.4551 43.1705 46.9001 44.3853 46.9001C45.8736 46.9001 47.2665 46.2328 48.3072 45.0211C48.5946 44.686 48.5564 44.1809 48.2212 43.893Z" fill="black"/>
<path d="M9.64999 25.282C10.0344 27.0921 10.7344 28.7871 11.7375 30.3367L8.66092 33.4137C8.34845 33.7262 8.34845 34.2324 8.66092 34.545C9.71871 35.6028 11.1242 36.1853 12.6203 36.1853C13.9648 36.1853 15.2367 35.7149 16.2477 34.8524C17.7953 35.8575 19.4898 36.5594 21.3001 36.9458V41.3001C21.3001 41.7419 21.6579 42.1001 22.1 42.1001C25.0368 42.1001 27.4524 39.8278 27.6821 36.9496C29.4931 36.5652 31.1884 35.8652 32.7369 34.8624L35.8142 37.9391C36.1267 38.2515 36.6329 38.2515 36.9455 37.9391C39.0205 35.8632 39.1236 32.5508 37.2525 30.3519C38.2573 28.8035 38.9595 27.1089 39.3463 25.2999H43.7002C43.7065 25.3007 43.7119 25.3003 43.7159 25.2999C44.1581 25.2999 44.5158 24.9417 44.5158 24.4999C44.5158 24.441 44.5096 24.3831 44.4978 24.3277C44.4104 21.4696 42.1721 19.143 39.3502 18.9179C38.9658 17.1078 38.2658 15.4128 37.2627 13.8632L40.3393 10.7862C40.6517 10.4738 40.6517 9.96751 40.3393 9.65494C39.2815 8.59716 37.876 8.01469 36.3799 8.01469C35.0353 8.01469 33.7635 8.48503 32.7525 9.34754C31.2049 8.34244 29.5103 7.64053 27.7001 7.25418V2.89995C27.7001 2.4581 27.3423 2.09998 26.9002 2.09998C23.9634 2.09998 21.5478 4.3722 21.3181 7.25043C19.5071 7.63481 17.8118 8.33484 16.2633 9.3376L13.186 6.26099C12.8735 5.94852 12.3672 5.94852 12.0547 6.26099C9.97971 8.33681 9.87658 11.6493 11.7477 13.8481C10.7429 15.3966 10.0406 17.0911 9.65393 18.9H5.29997C4.85775 18.9 4.5 19.2583 4.5 19.7C4.5 22.6364 6.77185 25.0523 9.64999 25.282ZM10.3156 20.5C10.7063 20.5 11.0398 20.218 11.1047 19.8328C11.4477 17.7937 12.2281 15.9086 13.4227 14.2288C13.6493 13.9105 13.6125 13.4749 13.336 13.1988L13.186 13.0492C11.8203 11.6831 11.6508 9.5671 12.6774 8.01478L15.6 10.9367C15.8759 11.214 16.3118 11.2488 16.6297 11.0227C18.3078 9.82772 20.193 9.048 22.2329 8.70506C22.618 8.64019 22.9001 8.30662 22.9001 7.91597V7.69997C22.9001 5.76833 24.2766 4.15189 26.1001 3.78045V7.91597C26.1001 8.30662 26.3821 8.64019 26.7673 8.70506C28.8071 9.048 30.6924 9.82772 32.3705 11.0227C32.6869 11.2488 33.1228 11.2129 33.3994 10.9375L33.551 10.7864C34.3064 10.031 35.3112 9.61491 36.3799 9.61491C37.1768 9.61491 37.9378 9.84619 38.5861 10.2771L35.6635 13.1997C35.3869 13.4759 35.351 13.9111 35.5775 14.229C36.7721 15.9087 37.5525 17.7939 37.8955 19.833C37.9603 20.2181 38.2939 20.5002 38.6846 20.5002H38.9002C40.8322 20.5002 42.4479 21.8767 42.8197 23.7002H38.6846C38.2939 23.7002 37.9603 23.9822 37.8955 24.3674C37.5525 26.4064 36.7721 28.2916 35.5775 29.9713C35.3509 30.2897 35.3877 30.7252 35.6642 31.0014L35.8142 31.1511C37.1799 32.5171 37.3494 34.6331 36.3228 36.1855L33.4001 33.2635C33.1243 32.987 32.6884 32.9514 32.3705 33.1776C30.6924 34.3725 28.8072 35.1522 26.7673 35.4952C26.3822 35.56 26.1001 35.8936 26.1001 36.2843V36.5003C26.1001 38.4319 24.7235 40.0483 22.9001 40.4198V36.2843C22.9001 35.8936 22.6181 35.56 22.2329 35.4952C20.1931 35.1522 18.3078 34.3725 16.6297 33.1776C16.4898 33.0779 16.3274 33.0292 16.1656 33.0292C15.9601 33.0292 15.7555 33.1085 15.6008 33.2628L15.4492 33.4139C14.6938 34.1693 13.689 34.5854 12.6203 34.5854C11.8234 34.5854 11.0624 34.3541 10.4141 33.9233L13.3367 31.0006C13.6133 30.7244 13.6492 30.2892 13.4227 29.9713C12.2281 28.2916 11.4477 26.4064 11.1047 24.3674C11.0398 23.9823 10.7063 23.7002 10.3156 23.7002H10.1C8.16798 23.7002 6.55229 22.3236 6.18048 20.5002H10.3156V20.5Z" fill="black"/>
<path d="M18.8998 23.6999H22.2725L22.0998 30.8808C22.0912 31.234 22.3162 31.5511 22.6522 31.6605C22.7335 31.6871 22.817 31.7 22.8999 31.7C23.1569 31.7 23.4054 31.5754 23.5577 31.3555L30.7578 20.9555C30.9273 20.7106 30.9468 20.3922 30.8086 20.1289C30.6703 19.8652 30.3977 19.7 30.1 19.7H26.7297L26.9 13.3215C26.9094 12.973 26.6922 12.6589 26.3633 12.5446C26.0328 12.4297 25.6688 12.5406 25.4602 12.82L18.2602 22.42C18.0781 22.6627 18.0492 22.9869 18.1844 23.258C18.3202 23.5288 18.5967 23.6999 18.8998 23.6999ZM25.2335 15.789L25.1077 20.4785C25.1023 20.6945 25.1843 20.9034 25.3343 21.0581C25.485 21.2128 25.6921 21.2999 25.9078 21.2999H28.5734L23.764 28.2464L23.8921 22.9191C23.8968 22.7038 23.8148 22.4952 23.6648 22.3409C23.514 22.187 23.3078 22.0999 23.0922 22.0999H20.5L25.2335 15.789Z" fill="black"/>
</g>
<defs>
<clipPath id="clip0_7064_2823">
<rect width="48" height="48" fill="white" transform="translate(0.5 0.5)"/>
</clipPath>
</defs>
</svg>
