<svg width="49" height="49" viewBox="0 0 49 49" fill="none" xmlns="http://www.w3.org/2000/svg">
<g clip-path="url(#clip0_7087_2678)">
<path d="M20.5024 9.5436C20.8025 9.5417 21.1073 9.35165 21.1111 8.92976V7.19181C21.1035 6.77371 20.7959 6.58557 20.4957 6.58557C20.1956 6.58557 19.8879 6.77371 19.8804 7.19371V8.92881C19.8889 9.3545 20.1985 9.54645 20.5024 9.54265V9.5436Z" fill="black"/>
<path d="M41.267 28.2125L41.143 28.0795L41.3011 27.9911C41.8436 27.688 42.1863 27.0855 42.1948 26.4185C42.2024 25.7913 41.9108 25.2564 41.3929 24.9504L41.2718 24.8782L41.3428 24.7556C41.8256 23.9194 42.4978 22.7507 42.4978 22.7507C42.902 22.0323 42.9143 21.2607 42.5318 20.5804C42.1361 19.8753 41.374 19.4049 40.5901 19.3821L40.468 19.3783L40.4528 19.2567C39.8687 14.4144 37.518 9.93222 33.8333 6.63402C30.1335 3.32347 25.4037 1.5 20.5138 1.5H20.4958C14.8656 1.66059 9.98905 3.63229 6.39528 7.20225C3.17641 10.4007 1.1258 14.7707 0.62119 19.5076C0.117531 24.2406 1.19112 28.9575 3.64598 32.7887C6.36972 37.04 10.6271 39.9828 15.9563 41.2989L16.0888 41.3312L16.0614 41.4652C15.9099 42.2139 16.1059 42.9732 16.5849 43.4977L16.6729 43.5937L16.5858 43.6896C15.9989 44.3386 15.8427 45.3383 16.1967 46.1763C16.5385 46.9869 17.2855 47.4686 18.2455 47.4991H30.5103C30.9789 47.5076 31.4135 47.3755 31.7723 47.1171L31.8225 47.081L31.8821 47.0924C33.2804 47.366 34.9656 47.4981 37.0333 47.4981C41.6239 47.4981 43.667 46.7987 44.804 46.2733C47.2891 45.1245 48.4972 43.1537 48.4972 40.2479C48.4972 37.3422 45.9959 33.3047 41.2642 28.2106L41.267 28.2125ZM41.0521 20.7761C41.4611 21.0013 41.7546 21.5211 41.4299 22.1302L41.428 22.134L39.9672 24.6663H38.0396V24.6758H34.0956L32.6348 22.1435C32.3167 21.5714 32.5836 21.0232 33.0116 20.7761C33.4347 20.5319 34.0359 20.5766 34.3654 21.1353L34.8776 22.0199C35.0186 22.2641 35.3026 22.382 35.5677 22.306C35.9294 22.209 36.0695 21.9116 36.024 21.3424V21.3329C36.0184 20.8806 36.3005 20.5024 36.7426 20.3704C37.1857 20.2373 37.6297 20.397 37.8739 20.7761C38.0321 21.0013 38.0349 21.275 38.0377 21.5163C38.0377 21.561 38.0377 21.6056 38.0406 21.6493V23.9764C38.4912 23.1935 39.3433 21.714 39.6888 21.1258C39.9946 20.5804 40.6213 20.5376 41.0549 20.7761H41.0521ZM40.965 26.446C40.965 26.7093 40.7861 26.9753 40.4434 26.9753H33.6108C33.394 26.9649 33.2227 26.8565 33.1413 26.6779C33.0561 26.4936 33.0826 26.2693 33.2075 26.1068C33.3297 25.9472 33.5247 25.8769 33.7434 25.912H40.4443C40.787 25.912 40.966 26.1809 40.966 26.447L40.965 26.446ZM16.1901 40.1311C11.1469 38.8217 7.1394 36.01 4.59934 31.9991C2.31583 28.3949 1.33692 23.9707 1.84247 19.5418C2.34802 15.1119 4.29922 11.0259 7.33632 8.03464C10.719 4.70603 15.268 2.87686 20.492 2.74478H20.4958C25.1499 2.74478 29.6336 4.48653 33.1223 7.64885C36.6044 10.8055 38.7838 15.0919 39.259 19.7195L39.2675 19.8021L39.2003 19.8506C39.1426 19.8924 39.081 19.9437 39.029 19.9969L38.9068 20.1195L38.8103 19.976C38.5812 19.6349 38.2252 19.3755 37.7528 19.2035L37.6732 19.175L37.6609 19.0904C37.0512 14.9779 34.9836 11.215 31.8386 8.4936C28.6879 5.76647 24.6586 4.26513 20.4949 4.26513C10.0459 4.47038 4.37402 12.0246 3.38847 19.4192C2.85357 23.4377 3.64882 27.4818 5.62748 30.8047C7.82673 34.4982 11.3713 37.1521 15.8777 38.4786L15.9837 38.51L15.9799 38.6212C15.9629 39.0564 16.0869 39.4925 16.3473 39.9192L16.5309 40.2204L16.1901 40.132V40.1311ZM16.5821 37.1388C16.566 37.155 16.5499 37.1778 16.5309 37.2034C16.5177 37.2225 16.5035 37.2415 16.4883 37.2605L16.4296 37.3336L16.3387 37.308C12.1779 36.144 8.8757 33.7209 6.78912 30.2992C4.90608 27.211 4.12029 23.4472 4.57567 19.7024C5.03104 15.9556 6.70202 12.5064 9.27995 9.99019C12.1561 7.1823 16.033 5.62964 20.4911 5.50041C20.5043 5.50041 20.5167 5.50041 20.5299 5.50041C24.3481 5.50041 28.0498 6.87348 30.96 9.36875C33.857 11.8526 35.7949 15.2895 36.4169 19.0458L36.4378 19.1693L36.3185 19.2054C35.8659 19.3441 35.4929 19.6111 35.2383 19.977L35.1455 20.1109L35.0262 20.0007C34.0511 19.1009 32.8601 19.3014 32.1131 19.9C31.368 20.4958 30.9098 21.6113 31.5631 22.7621L32.7862 24.8753L32.6707 24.9485C32.151 25.2792 31.8376 25.9187 31.8717 26.5791C31.9039 27.2024 32.2286 27.7127 32.7616 27.9787L32.932 28.0633L32.8023 28.203C31.1825 29.9533 29.8192 31.5924 28.7522 33.0738L28.7096 33.1327H18.2417C17.2864 33.1631 16.5395 33.6458 16.1967 34.4554C15.8427 35.2945 15.9989 36.2931 16.5858 36.9421L16.6767 37.0429L16.5811 37.1388H16.5821ZM18.2331 34.368C18.4585 34.3747 22.8816 34.3718 26.4346 34.3699C28.0488 34.3699 29.539 34.368 30.5027 34.368C31.1882 34.3737 31.5006 34.8973 31.5006 35.3809C31.5006 35.8883 31.1588 36.4053 30.5046 36.411H18.2303C17.5345 36.3939 17.223 35.8665 17.2287 35.3838C17.2344 34.8792 17.5818 34.368 18.2331 34.368ZM31.351 39.236C31.173 39.5362 30.8596 39.7025 30.4999 39.6987H18.2341C18.2275 39.6987 18.2218 39.6987 18.2152 39.6987C17.5894 39.6987 17.241 39.1799 17.2315 38.6858C17.222 38.2012 17.5297 37.6719 18.2294 37.6558H30.5027C30.8899 37.6586 31.1976 37.8296 31.3709 38.1375C31.5545 38.4653 31.547 38.9072 31.3519 39.236H31.351ZM31.5006 41.9517C31.5006 42.4619 31.1588 42.9808 30.5046 42.9865H18.2303C17.5326 42.9703 17.2249 42.4458 17.2353 41.965C17.2457 41.4623 17.5922 40.934 18.2161 40.934C18.2227 40.934 18.2294 40.934 18.236 40.934H30.5027C31.1882 40.9397 31.5006 41.4652 31.5006 41.9517ZM31.2185 45.9854C31.0376 46.1668 30.7981 46.2638 30.5075 46.2742L30.4071 46.278L30.4052 46.2733C29.5049 46.2666 22.181 46.2657 18.2331 46.2657H18.2313C17.5733 46.2552 17.2287 45.7449 17.2287 45.247C17.2287 44.7463 17.5733 44.2341 18.2313 44.2227H30.5037C30.9004 44.2141 31.2544 44.447 31.4201 44.8337C31.5934 45.2385 31.5138 45.6908 31.2194 45.9863L31.2185 45.9854ZM37.4413 46.2828C36.0373 46.2828 34.4913 46.1916 32.8071 46.0072L32.6452 45.9892L32.6849 45.8305C32.88 45.0475 32.6849 44.2721 32.151 43.701L32.0582 43.6022L32.1519 43.5043C32.9453 42.6814 32.9453 41.2371 32.1519 40.4152L32.0563 40.3164L32.1519 40.2175C32.9406 39.3984 32.9406 37.9551 32.1519 37.1274L32.0554 37.0267L32.1538 36.9279C32.6433 36.4404 33.0068 35.5472 32.5609 34.5029C32.2703 33.8216 31.582 33.1061 30.5255 33.1327L30.2263 33.1413L30.409 32.9037C31.4883 31.4964 32.8449 29.9362 34.443 28.2648L34.4847 28.221H39.5658L39.6074 28.2629C45.8511 34.5789 48.3429 39.6008 46.8148 42.785C45.7043 45.0979 42.4959 46.2837 37.4422 46.2837L37.4413 46.2828Z" fill="black"/>
<path d="M39.2978 35.8788C39.3054 36.2959 39.6131 36.485 39.9132 36.485C40.2133 36.485 40.521 36.2969 40.5286 35.8769C40.4964 34.7053 39.8441 33.8064 38.7828 33.4785L38.6825 33.4472V32.9806C38.6749 32.5635 38.3672 32.3744 38.0671 32.3744C37.767 32.3744 37.4593 32.5625 37.4517 32.9825V33.4063L37.3429 33.4329C35.9067 33.7779 35.3765 35.0321 35.4892 36.122C35.6037 37.2347 36.4226 38.3788 37.9961 38.4263C38.8813 38.4482 39.2846 39.1209 39.2846 39.7376C39.2846 40.3543 38.8813 41.0271 37.9961 41.0489C37.2718 41.0489 36.6858 40.4607 36.6858 39.7376C36.6782 39.3205 36.3706 39.1314 36.0705 39.1314C35.7703 39.1314 35.4627 39.3195 35.4551 39.7395C35.4551 40.8874 36.2333 41.8975 37.3466 42.193L37.4527 42.2205V42.6443C37.4602 43.0615 37.7679 43.2506 38.068 43.2506C38.3682 43.2506 38.6758 43.0624 38.6834 42.6424V42.1911L38.7809 42.1588C40.183 41.6913 40.6431 40.4113 40.4765 39.3499C40.3108 38.2904 39.4777 37.2148 37.9914 37.2005H37.9895C37.1071 37.1787 36.7029 36.5069 36.701 35.8921C36.6991 35.2735 37.1014 34.596 37.9885 34.5684C38.7137 34.5684 39.2997 35.1566 39.2997 35.8797L39.2978 35.8788Z" fill="black"/>
<path d="M23.0417 21.9962C23.1941 20.7761 22.5607 19.3498 20.8112 19.0971C20.0633 19.0401 19.4015 19.2197 18.8978 19.6187L18.8249 19.6767L18.7435 19.633C16.7223 18.5526 9.20999 14.5237 9.13425 14.4828C9.02822 14.4287 8.92692 14.4049 8.83319 14.4049C8.5984 14.4049 8.4119 14.5541 8.31155 14.746C8.17143 15.013 8.19321 15.3732 8.55959 15.5727L18.1225 20.6934L18.0846 20.8075C17.7447 21.8309 18.0288 22.9683 18.7918 23.6391L18.8997 23.7341L18.8032 23.8415C17.6046 25.1756 14.7701 28.3142 14.7417 28.3455C14.4681 28.6553 14.5779 29.0126 14.7966 29.2112C15.0201 29.4155 15.3741 29.4848 15.6591 29.1789L20.1087 24.2425L20.1807 24.2501C21.9302 24.4401 22.8911 23.2153 23.0426 21.9971L23.0417 21.9962ZM19.162 21.7149C19.1383 20.8217 19.8181 20.3343 20.5007 20.3143C21.4114 20.3419 21.8355 21.0251 21.8488 21.6484C21.862 22.2727 21.4644 22.9749 20.5622 23.0405H20.5556C20.5423 23.0405 20.5281 23.0405 20.5149 23.0405C19.6486 23.0405 19.179 22.3782 19.162 21.713V21.7149Z" fill="black"/>
<path d="M7.72162 21.1315H5.99195C5.57539 21.1391 5.38794 21.4479 5.38794 21.7491C5.38794 22.0503 5.57539 22.3591 5.99384 22.3668H7.72257C8.14291 22.362 8.33226 22.057 8.33415 21.7558C8.33605 21.4507 8.1467 21.1391 7.72067 21.1315H7.72162Z" fill="black"/>
</g>
<defs>
<clipPath id="clip0_7087_2678">
<rect width="48" height="46" fill="white" transform="translate(0.5 1.5)"/>
</clipPath>
</defs>
</svg>
