<svg width="49" height="49" viewBox="0 0 49 49" fill="none" xmlns="http://www.w3.org/2000/svg">
<g clip-path="url(#clip0_7064_2860)">
<path d="M48.4173 41.1616C48.31 41.3411 48.1217 41.4484 47.9139 41.4484H1.08595C0.878149 41.4484 0.689861 41.342 0.583523 41.1625C0.476209 40.9821 0.472306 40.7655 0.571816 40.583L9.93741 23.4128C10.0399 23.2245 10.2369 23.1074 10.4515 23.1074H24.4999C24.8229 23.1074 25.0853 23.3699 25.0853 23.6928C25.0853 24.0157 24.8229 24.2781 24.4999 24.2781H10.7989L2.07226 40.2777H46.9276L38.2001 24.2781H33.8655C33.5426 24.2781 33.2802 24.0157 33.2802 23.6928C33.2802 23.3699 33.5426 23.1074 33.8655 23.1074H38.5483C38.763 23.1074 38.96 23.2245 39.0625 23.4128L48.4281 40.583C48.5276 40.7655 48.5237 40.9821 48.4173 41.1616Z" fill="black"/>
<path d="M13.9871 28.0088L10.8652 31.1306C10.5843 31.4126 10.2487 31.3296 10.0418 31.1218C9.83696 30.917 9.75599 30.5843 10.0379 30.3033L13.1598 27.1815C13.3003 27.041 13.4417 26.999 13.5598 26.999C13.6105 26.999 13.6573 27.0068 13.6973 27.0176C13.912 27.0751 14.0944 27.2576 14.152 27.4712C14.1871 27.6058 14.1881 27.8078 13.9871 28.0088Z" fill="black"/>
<path d="M17.109 30.3501L15.5481 31.911C15.2671 32.1929 14.9217 32.1032 14.7188 31.9012C14.6096 31.791 14.5442 31.6544 14.5364 31.5159C14.5266 31.3608 14.5891 31.2154 14.7208 31.0837L16.2817 29.5228C16.4222 29.3823 16.5637 29.3403 16.6817 29.3403C16.7324 29.3403 16.7793 29.3481 16.8193 29.3589C17.0339 29.4164 17.2163 29.5989 17.2739 29.8125C17.309 29.9471 17.31 30.1491 17.109 30.3501Z" fill="black"/>
<path d="M13.3782 33.8388C13.3782 33.9949 13.3177 34.1422 13.2065 34.2524L10.8651 36.5938C10.7383 36.7216 10.588 36.7831 10.4319 36.7723C10.2905 36.7626 10.1471 36.6943 10.0358 36.5841C9.83291 36.3811 9.75487 36.0494 10.0378 35.7665L12.3792 33.4251C12.4933 33.311 12.6426 33.2544 12.7928 33.2544C12.9431 33.2544 13.0923 33.311 13.2065 33.4251C13.3177 33.5363 13.3782 33.6827 13.3782 33.8388Z" fill="black"/>
<path d="M37.205 17.6871L32.9631 15.9905C32.2656 15.7125 31.7056 15.1525 31.4256 14.455L29.7261 10.2092C29.6178 9.93801 29.374 9.84241 29.1827 9.84241C28.9915 9.84241 28.7476 9.93801 28.6393 10.2092L26.9409 14.455C26.6609 15.1525 26.0999 15.7125 25.4024 15.9915L21.1605 17.6871C20.8903 17.7954 20.7937 18.0383 20.7937 18.2295C20.7937 18.4207 20.8903 18.6646 21.1605 18.7739L25.4024 20.4694C26.0999 20.7485 26.6609 21.3084 26.9409 22.006L28.6393 26.2527C28.694 26.3873 28.7818 26.479 28.8803 26.5366C28.9788 26.5941 29.0871 26.6185 29.1827 26.6185C29.3749 26.6185 29.6178 26.5229 29.7261 26.2527L31.4256 22.006C31.7056 21.3084 32.2656 20.7485 32.9631 20.4694L37.205 18.7739C37.4762 18.6656 37.5728 18.4217 37.5728 18.2305C37.5728 18.0393 37.4762 17.7944 37.205 17.6871ZM32.528 19.3826C31.5339 19.7797 30.7359 20.5777 30.3388 21.5709L29.1827 24.4596L28.0267 21.5709C27.6286 20.5767 26.8306 19.7787 25.8375 19.3817L22.9546 18.2295L25.8375 17.0764C26.8306 16.6793 27.6286 15.8813 28.0267 14.8881L29.1827 12.0004L30.3398 14.8891C30.7368 15.8832 31.5358 16.6803 32.529 17.0773L35.4109 18.2295L32.528 19.3826Z" fill="black"/>
<path d="M20.8152 12.2238L18.2699 11.2053C17.9099 11.0619 17.6212 10.7731 17.4768 10.4141L16.4583 7.86682C16.4036 7.73219 16.3158 7.64048 16.2173 7.58195C16.1188 7.52439 16.0105 7.5 15.9149 7.5C15.7227 7.5 15.4798 7.59658 15.3715 7.86682L14.352 10.4141C14.2086 10.7741 13.9198 11.0628 13.5598 11.2053L11.0145 12.2238C10.7443 12.3311 10.6477 12.575 10.6477 12.7662C10.6477 12.8618 10.6721 12.9711 10.7297 13.0696C10.7882 13.1681 10.8799 13.2559 11.0145 13.3106L13.5598 14.3281C13.9198 14.4725 14.2086 14.7603 14.352 15.1193L15.3715 17.6675C15.4798 17.9378 15.7237 18.0334 15.9149 18.0334C16.1061 18.0334 16.35 17.9378 16.4583 17.6675L17.4768 15.1193C17.6212 14.7603 17.9099 14.4715 18.2699 14.3281L20.8143 13.3106C21.0855 13.2023 21.1821 12.9584 21.1821 12.7662C21.1821 12.574 21.0855 12.3311 20.8152 12.2238ZM17.8358 13.2403C17.1802 13.5028 16.6534 14.0286 16.391 14.6842L15.9149 15.8734L15.4388 14.6842C15.1764 14.0286 14.6495 13.5018 13.994 13.2403L12.8086 12.7662L13.994 12.2921C14.6495 12.0306 15.1754 11.5048 15.4388 10.8492L15.9149 9.65994L16.391 10.8492C16.6534 11.5048 17.1802 12.0306 17.8358 12.2921L19.0211 12.7662L17.8358 13.2403Z" fill="black"/>
</g>
<defs>
<clipPath id="clip0_7064_2860">
<rect width="48" height="48" fill="white" transform="translate(0.5 0.5)"/>
</clipPath>
</defs>
</svg>
