<?xml version="1.0" encoding="UTF-8"?>
<svg id="Layer_1" data-name="Layer 1" xmlns="http://www.w3.org/2000/svg" xmlns:xlink="http://www.w3.org/1999/xlink" viewBox="0 0 958.38 200">
  <defs>
    <style>
      .cls-1 {
        fill: none;
      }

      .cls-2 {
        fill: url(#linear-gradient-7);
      }

      .cls-3 {
        fill: url(#linear-gradient-5);
      }

      .cls-4 {
        fill: url(#linear-gradient-6);
      }

      .cls-5 {
        fill: url(#linear-gradient-4);
      }

      .cls-6 {
        fill: url(#linear-gradient-3);
      }

      .cls-7 {
        fill: url(#linear-gradient-2);
      }

      .cls-8 {
        fill: url(#linear-gradient);
      }

      .cls-9 {
        clip-path: url(#clippath);
      }
    </style>
    <clipPath id="clippath">
      <rect class="cls-1" width="958.38" height="200"/>
    </clipPath>
    <linearGradient id="linear-gradient" x1="67.02" y1="163.17" x2="48.38" y2="-22.2" gradientTransform="translate(0 201.28) scale(1 -1)" gradientUnits="userSpaceOnUse">
      <stop offset="0" stop-color="#30e8fe"/>
      <stop offset="1" stop-color="#0d0552"/>
    </linearGradient>
    <linearGradient id="linear-gradient-2" x1="193.25" y1="162.61" x2="169.24" y2="-22.77" xlink:href="#linear-gradient"/>
    <linearGradient id="linear-gradient-3" x1="324.58" y1="163.46" x2="293.75" y2="-26.46" xlink:href="#linear-gradient"/>
    <linearGradient id="linear-gradient-4" x1="579.67" y1="201.04" x2="574.66" y2="160.13" xlink:href="#linear-gradient"/>
    <linearGradient id="linear-gradient-5" x1="581.82" y1="161.57" x2="578.41" y2="110.29" xlink:href="#linear-gradient"/>
    <linearGradient id="linear-gradient-6" x1="599.22" y1="159.6" x2="595.24" y2="110.38" xlink:href="#linear-gradient"/>
    <linearGradient id="linear-gradient-7" x1="547.43" y1="175.79" x2="542.84" y2="146.43" xlink:href="#linear-gradient"/>
  </defs>
  <g class="cls-9">
    <g>
      <path class="cls-8" d="M77.91,37.35l-18.93,109c-2.42,12.95-9.11,18.71-20.35,18.71-8.4,0-16.79-3.56-22.55-7.68L0,187.34c9.11,6.26,25.19,12.24,42.9,12.24,24.9,0,40.48-7.19,50.09-28.53,3.13-6.47,5.27-16.08,6.47-22.06l19.64-111.63h-41.2Z"/>
      <path class="cls-7" d="M116.97,196.66h105.87l6.26-35.93h-64.67l4.98-27.53h53.93l6.26-35.5h-53.93l4.34-24.4h62.75l6.47-35.93h-104.23l-28.03,159.3Z"/>
      <path class="cls-6" d="M388.69,37.35h-127.5l-6.4,35.93h42.62l-21.77,123.37h40.91l21.84-123.37h44.11l6.19-35.93Z"/>
      <path d="M497.76,37.35l-10.81,61.54h-50.3l10.81-61.54h-41.27l-28.03,159.3h41.2l10.81-61.83h50.59l-11.03,61.83h41.41l23.34-132.41-23.27-26.89h-13.45Z"/>
      <path d="M610.6,165.78c-18.21,0-23.27-13.87-23.27-30.45,0-2.99.14-6.19.43-9.32l-33.65-38.92c-3.2,7.83-5.76,16.65-7.54,26.68-1.42,8.61-2.13,18.21-2.13,24.9,0,39.27,22.06,60.83,59.2,60.83,14.73,0,28.25-2.92,40.13-8.82l-23.12-26.75c-3.06,1.14-6.4,1.78-10.03,1.78v.07Z"/>
      <path d="M780.79,103.45c-13.87-6.26-27.32-10.81-27.32-21.34,0-9.61,8.11-13.16,17.29-13.16,11.24,0,23.69,6.69,34.51,16.29l25.4-26.11c-11.24-12.95-33.51-24.4-57.99-24.4-36.93,0-63.04,18.21-63.04,53.65,0,24.9,16.79,34.51,32.59,40.98,13.87,5.98,27.53,9.32,27.53,19.92,0,11.24-9.11,15.37-19.42,15.37-13.45,0-33.08-8.61-42.62-15.37l-18.93,32.37c8.89,7.19,32.59,18.43,59.91,18.43,39.06,0,65.88-21.56,65.88-55.14,0-24.69-17.72-34.51-33.8-41.48Z"/>
      <path d="M951.9,73.28l6.48-35.93h-104.24l-28.03,159.3h105.87l6.26-35.93h-64.68l4.98-27.53h53.93l6.26-35.5h-53.94l4.34-24.4h62.75Z"/>
      <path class="cls-5" d="M577.73,32.16c8.88,0,16.08-7.2,16.08-16.08s-7.2-16.08-16.08-16.08-16.08,7.2-16.08,16.08,7.2,16.08,16.08,16.08Z"/>
      <path d="M633.37,34.44c-9.32,0-18.93,1.21-28.17,4.06,7.47,5.62,12.02,14.37,12.02,23.76,0,2.99-.57,5.91-1.42,8.68,3.42-1.42,7.04-2.28,11.1-2.28,17.72,0,22.55,14.87,22.55,30.88,0,6.47-1,13.45-1.92,19.14-1.92,13.23-5.91,25.54-12.52,34.22l19,31.73c18.07-12.95,30.95-34.58,36.21-65.88,1.42-8.89,1.92-17.72,1.92-24.9,0-40.77-24.69-59.41-58.7-59.41h-.07Z"/>
      <path class="cls-3" d="M596.02,60.9c0-6.19-2.85-11.6-7.26-15.23,2.56-1.49,5.26-2.77,7.9-3.91-2.85-1.28-5.91-2.13-9.25-2.13-12.52,0-22.7,10.17-22.7,22.7s10.17,22.7,22.7,22.7c2.21,0,4.27-.43,6.26-1l-4.77-7.97c4.34-3.63,7.12-9.04,7.12-15.15Z"/>
      <path class="cls-4" d="M610.1,62.33c0-8.54-4.77-15.87-11.74-19.78-.57-.28-1.14-.57-1.71-.85-2.7,1.14-7.73,2.27-10.29,3.76,4.41,3.63,7.3,9.37,7.3,15.49s-2.96,12.63-7.3,16.33l7.3,6.68c3.77-1.07,7.19-3.06,9.82-5.76,4.06-4.13,6.55-9.75,6.55-15.94l.07.07Z"/>
      <path class="cls-2" d="M545.5,50.52c6.99,0,12.66-5.67,12.66-12.66s-5.67-12.66-12.66-12.66-12.66,5.67-12.66,12.66,5.67,12.66,12.66,12.66Z"/>
    </g>
  </g>
</svg>