<svg width="85" height="16" viewBox="0 0 85 16" fill="none" xmlns="http://www.w3.org/2000/svg">
<path d="M16.0759 5.71888L11.1572 4.96643L8.95257 0.263423C8.7879 -0.0877669 8.21257 -0.0877669 8.0479 0.263423L5.84391 4.96643L0.925253 5.71888C0.521254 5.78097 0.359921 6.27304 0.643254 6.56347L4.21658 10.2316L3.37191 15.4173C3.30458 15.8293 3.74391 16.1384 4.10724 15.9361L8.50057 13.5045L12.8939 15.9368C13.2539 16.1371 13.6972 15.8339 13.6292 15.418L12.7846 10.2323L16.3579 6.56414C16.6412 6.27304 16.4792 5.78097 16.0759 5.71888Z" fill="#FFCB13"/>
<path d="M33.0759 5.71888L28.1572 4.96643L25.9526 0.263423C25.7879 -0.0877669 25.2126 -0.0877669 25.0479 0.263423L22.8439 4.96643L17.9253 5.71888C17.5213 5.78097 17.3599 6.27304 17.6433 6.56347L21.2166 10.2316L20.3719 15.4173C20.3046 15.8293 20.7439 16.1384 21.1072 15.9361L25.5006 13.5045L29.8939 15.9368C30.2539 16.1371 30.6972 15.8339 30.6292 15.418L29.7846 10.2323L33.3579 6.56414C33.6412 6.27304 33.4792 5.78097 33.0759 5.71888Z" fill="#FFCB13"/>
<path d="M50.0759 5.71888L45.1572 4.96643L42.9526 0.263423C42.7879 -0.0877669 42.2126 -0.0877669 42.0479 0.263423L39.8439 4.96643L34.9253 5.71888C34.5213 5.78097 34.3599 6.27304 34.6433 6.56347L38.2166 10.2316L37.3719 15.4173C37.3046 15.8293 37.7439 16.1384 38.1072 15.9361L42.5006 13.5045L46.8939 15.9368C47.2539 16.1371 47.6972 15.8339 47.6292 15.418L46.7846 10.2323L50.3579 6.56414C50.6412 6.27304 50.4792 5.78097 50.0759 5.71888Z" fill="#FFCB13"/>
<path d="M67.0759 5.71888L62.1572 4.96643L59.9526 0.263423C59.7879 -0.0877669 59.2126 -0.0877669 59.0479 0.263423L56.8439 4.96643L51.9253 5.71888C51.5213 5.78097 51.3599 6.27304 51.6433 6.56347L55.2166 10.2316L54.3719 15.4173C54.3046 15.8293 54.7439 16.1384 55.1072 15.9361L59.5006 13.5045L63.8939 15.9368C64.2539 16.1371 64.6972 15.8339 64.6292 15.418L63.7846 10.2323L67.3579 6.56414C67.6412 6.27304 67.4792 5.78097 67.0759 5.71888Z" fill="#FFCB13"/>
<path fill-rule="evenodd" clip-rule="evenodd" d="M76.4998 3.05253e-05C76.3148 4.41365e-07 76.1298 0.0877925 76.0474 0.263407L73.8436 4.96612L68.9252 5.71853C68.5213 5.78062 68.3599 6.27265 68.6432 6.56307L72.2164 10.231L71.3717 15.4164C71.3044 15.8283 71.7437 16.1374 72.107 15.9351L76.4998 13.5038V3.05253e-05Z" fill="#FFCB13"/>
<path fill-rule="evenodd" clip-rule="evenodd" d="M76.5 13.5037V3.05176e-05C76.6849 8.41237e-05 76.8698 0.0878762 76.9521 0.263407L79.1567 4.96612L84.075 5.71853C84.4783 5.78062 84.6403 6.27265 84.357 6.56374L80.7839 10.2316L81.6285 15.417C81.6965 15.833 81.2532 16.1361 80.8932 15.9358L76.5002 13.5036L76.5 13.5037Z" fill="#EEEEEE"/>
</svg>
